<svg width="960" height="540" viewBox="0 0 960 540" fill="none" xmlns="http://www.w3.org/2000/svg">
  <defs>
    <linearGradient id="bg1" x1="0" y1="0" x2="960" y2="540" gradientUnits="userSpaceOnUse">
      <stop offset="0" stop-color="#FFE8D1"/>
      <stop offset="0.55" stop-color="#FFD8C2"/>
      <stop offset="1" stop-color="#FFCBB8"/>
    </linearGradient>
    <linearGradient id="book1" x1="285" y1="140" x2="690" y2="420" gradientUnits="userSpaceOnUse">
      <stop offset="0" stop-color="#FF8A5C"/>
      <stop offset="1" stop-color="#F06292"/>
    </linearGradient>
    <radialGradient id="glow1" cx="0" cy="0" r="1" gradientUnits="userSpaceOnUse" gradientTransform="translate(758 118) rotate(142.831) scale(196.42 168.113)">
      <stop stop-color="#FFF8EA"/>
      <stop offset="1" stop-color="#FFF8EA" stop-opacity="0"/>
    </radialGradient>
  </defs>
  <rect width="960" height="540" rx="44" fill="url(#bg1)"/>
  <rect x="76" y="72" width="232" height="232" rx="116" fill="#FFF6E9" fill-opacity="0.9"/>
  <circle cx="192" cy="188" r="86" fill="#FFD2AE"/>
  <path d="M132 188C132 154.863 158.863 128 192 128V248C158.863 248 132 221.137 132 188Z" fill="#FF9A76"/>
  <path d="M252 188C252 221.137 225.137 248 192 248V128C225.137 128 252 154.863 252 188Z" fill="#FF6F91"/>
  <rect x="266" y="130" width="426" height="262" rx="34" transform="rotate(3 266 130)" fill="url(#book1)"/>
  <rect x="298" y="152" width="360" height="218" rx="24" transform="rotate(3 298 152)" fill="#FFF9F1"/>
  <rect x="320" y="178" width="146" height="12" rx="6" transform="rotate(3 320 178)" fill="#FFD0B4"/>
  <rect x="320" y="202" width="238" height="11" rx="5.5" transform="rotate(3 320 202)" fill="#F9C7B6"/>
  <rect x="320" y="226" width="210" height="11" rx="5.5" transform="rotate(3 320 226)" fill="#EFB8BE"/>
  <rect x="320" y="250" width="188" height="11" rx="5.5" transform="rotate(3 320 250)" fill="#E0B3CE"/>
  <rect x="320" y="274" width="224" height="11" rx="5.5" transform="rotate(3 320 274)" fill="#D2B0DA"/>
  <circle cx="746" cy="110" r="104" fill="url(#glow1)"/>
  <circle cx="742" cy="114" r="4.5" fill="#FFFFFF"/>
  <circle cx="778" cy="88" r="3.5" fill="#FFFFFF"/>
  <circle cx="804" cy="132" r="3" fill="#FFFFFF"/>
  <circle cx="774" cy="148" r="2.5" fill="#FFFFFF"/>
</svg>
