<svg width="960" height="540" viewBox="0 0 960 540" fill="none" xmlns="http://www.w3.org/2000/svg">
  <defs>
    <linearGradient id="bg2" x1="72" y1="48" x2="878" y2="496" gradientUnits="userSpaceOnUse">
      <stop offset="0" stop-color="#E6F4FF"/>
      <stop offset="0.48" stop-color="#D9E8FF"/>
      <stop offset="1" stop-color="#E3E7FF"/>
    </linearGradient>
    <linearGradient id="spine2" x1="430" y1="144" x2="430" y2="392" gradientUnits="userSpaceOnUse">
      <stop stop-color="#7A7DFF"/>
      <stop offset="1" stop-color="#5F58F7"/>
    </linearGradient>
    <linearGradient id="page2" x1="290" y1="154" x2="640" y2="376" gradientUnits="userSpaceOnUse">
      <stop stop-color="#FFFFFF"/>
      <stop offset="1" stop-color="#F3F5FF"/>
    </linearGradient>
  </defs>
  <rect width="960" height="540" rx="44" fill="url(#bg2)"/>
  <circle cx="134" cy="398" r="92" fill="#C6D8FF" fill-opacity="0.62"/>
  <circle cx="840" cy="140" r="78" fill="#D2DDFF" fill-opacity="0.72"/>
  <path d="M258 368C258 351.431 271.431 338 288 338H672C688.569 338 702 351.431 702 368V376C702 392.569 688.569 406 672 406H288C271.431 406 258 392.569 258 376V368Z" fill="#B8C7FF"/>
  <path d="M244 168C244 149.222 259.222 134 278 134H682C700.778 134 716 149.222 716 168V344C716 362.778 700.778 378 682 378H278C259.222 378 244 362.778 244 344V168Z" fill="#6F79FF"/>
  <rect x="270" y="156" width="186" height="206" rx="20" fill="url(#page2)"/>
  <rect x="504" y="156" width="186" height="206" rx="20" fill="url(#page2)"/>
  <rect x="456" y="144" width="48" height="238" rx="18" fill="url(#spine2)"/>
  <rect x="298" y="186" width="132" height="10" rx="5" fill="#D3DBFF"/>
  <rect x="298" y="210" width="118" height="10" rx="5" fill="#C2CEFF"/>
  <rect x="298" y="234" width="124" height="10" rx="5" fill="#B3C2FF"/>
  <rect x="530" y="186" width="132" height="10" rx="5" fill="#D3DBFF"/>
  <rect x="530" y="210" width="110" height="10" rx="5" fill="#C2CEFF"/>
  <rect x="530" y="234" width="126" height="10" rx="5" fill="#B3C2FF"/>
  <circle cx="780" cy="88" r="5" fill="#FFFFFF"/>
  <circle cx="808" cy="104" r="3.5" fill="#FFFFFF"/>
  <circle cx="756" cy="118" r="3.2" fill="#FFFFFF"/>
</svg>
